<svg xmlns="http://www.w3.org/2000/svg" version="1.1" viewBox="-5.0 -10.0 110.0 135.0" fill="white">
 <path d="m26.398 43.102v20.398c0 4.1992-2.8008 7.6992-6.8984 8.6016-1.8984 0.39844-3.3008 2.1016-3.3008 4.1016 0 2.3008 1.8984 4.1992 4.1992 4.1992h18.801c0.69922 5.3984 5.3008 9.5977 10.801 9.5977s10.102-4.1992 10.699-9.5h18.801c2.3008 0 4.1992-1.8984 4.1992-4.1992 0-2-1.3984-3.6992-3.3008-4.1016-4-0.89844-6.8984-4.5-6.8984-8.6016v-20.496c0-6.3008-2.5-12.199-6.8984-16.699-3.3984-3.3984-7.6016-5.6016-12.199-6.5 0.89844-1.1016 1.5-2.3984 1.5-3.8984 0-3.3008-2.6992-6-6-6-3.3008 0-6 2.6992-6 6 0 1.5 0.60156 2.8984 1.5 3.8984-10.801 2.0977-19.004 11.699-19.004 23.199zm23.602 44.297c-4.1016 0-7.5-3-8.1016-6.8984h16.301c-0.69922 3.8984-4.0977 6.8984-8.1992 6.8984zm0-74.797c1.8984 0 3.3984 1.5 3.3984 3.3984s-1.5 3.3984-3.3984 3.3984-3.3984-1.5-3.3984-3.3984 1.5-3.3984 3.3984-3.3984zm0 9.3984c5.6016 0 10.898 2.1992 14.898 6.1992s6.1992 9.3008 6.1992 14.898v20.5c0 5.3984 3.6992 9.8984 8.8984 11.102 0.80078 0.19922 1.3008 0.80078 1.3008 1.6016 0 0.89844-0.69922 1.6016-1.6016 1.6016h-59c-0.89844 0-1.6016-0.69922-1.6016-1.6016 0-0.80078 0.5-1.3984 1.3008-1.6016 5.1992-1.1992 8.8008-5.8008 8.8984-11.102l0.007812-20.496c-0.30078-11.602 9.0977-21.102 20.699-21.102z" fill="white"/>
</svg>