<svg xmlns="http://www.w3.org/2000/svg" version="1.1" viewBox="-5.0 -10.0 110.0 135.0">
 <g>
  <path d="m75 82h-50c-7.1367-0.019531-13.82-3.4961-17.93-9.3281-4.1094-5.8359-5.1328-13.297-2.75-20.023 2.3867-6.7266 7.8828-11.879 14.75-13.82-0.71094-2.0312-1.0703-4.1719-1.0703-6.3281 0-6.2656 3.0156-12.152 8.0977-15.816 5.082-3.6641 11.617-4.6602 17.562-2.6797 5.9453 1.9805 10.578 6.6953 12.449 12.676 3.3086-2.4062 7.3008-3.6914 11.391-3.6797 5.0117 0 9.832 1.9297 13.461 5.3867 3.6328 3.457 5.793 8.1758 6.0391 13.184 5.332 3.4727 8.8945 9.0859 9.7734 15.387 0.88281 6.3047-1.0117 12.676-5.1875 17.48-4.1719 4.8008-10.223 7.5586-16.586 7.5625zm-37.5-65c-4.1094 0.003906-8.0508 1.6367-10.957 4.543s-4.5391 6.8477-4.543 10.957c0 2.3906 0.55859 4.7461 1.6289 6.8789 0.28516 0.57031 0.28125 1.2461-0.011718 1.8125-0.29297 0.56641-0.83594 0.96094-1.4688 1.0586-5.9727 1.0039-11.043 4.9492-13.484 10.492-2.4414 5.5469-1.9336 11.945 1.3594 17.035 3.2891 5.0859 8.918 8.1758 14.977 8.2227h50c5.3164-0.003906 10.359-2.3594 13.777-6.4336 3.418-4.0742 4.8555-9.4492 3.9375-14.688-0.92188-5.2344-4.1133-9.7969-8.7148-12.457-0.62891-0.36328-1.0117-1.0391-1-1.7617v-0.19922c-0.011719-4.1055-1.6484-8.0352-4.5547-10.934-2.9062-2.8984-6.8398-4.5273-10.945-4.5273-4.2344-0.011719-8.2812 1.7227-11.191 4.8008-0.53516 0.55859-1.3438 0.75781-2.0781 0.51172s-1.2617-0.89453-1.3516-1.6641c-0.44922-3.7617-2.2656-7.2266-5.0977-9.7422-2.8359-2.5156-6.4922-3.9023-10.281-3.9062z" fill="white"/>
  <path d="m15 62c-1.1055 0-2-0.89453-2-2 0-4.5078 1.793-8.832 4.9805-12.02s7.5117-4.9805 12.02-4.9805c1.1055 0 2 0.89453 2 2s-0.89453 2-2 2c-7.1797 0-13 5.8203-13 13 0 0.53125-0.21094 1.0391-0.58594 1.4141s-0.88281 0.58594-1.4141 0.58594z" fill="white"/>
  <path d="m30 37c-1.1055 0-2-0.89453-2-2 0-6.6289 5.3711-12 12-12 1.1055 0 2 0.89453 2 2s-0.89453 2-2 2c-4.418 0-8 3.582-8 8 0 0.53125-0.21094 1.0391-0.58594 1.4141s-0.88281 0.58594-1.4141 0.58594z" fill="white"/>
  <path d="m85 62c-1.1055 0-2-0.89453-2-2 0-7.1797-5.8203-13-13-13-1.1055 0-2-0.89453-2-2s0.89453-2 2-2c4.5078 0 8.832 1.793 12.02 4.9805s4.9805 7.5117 4.9805 12.02c0 0.53125-0.21094 1.0391-0.58594 1.4141s-0.88281 0.58594-1.4141 0.58594z" fill="white"/>
 </g>
</svg>