<svg xmlns="http://www.w3.org/2000/svg" version="1.1" viewBox="-5.0 -10.0 110.0 135.0">
 <g>
  <path d="m50 55.621c8.5586 0 15.531-6.9688 15.531-15.531 0-8.5586-6.9688-15.531-15.531-15.531-8.5586 0-15.531 6.9688-15.531 15.531 0 8.5586 6.9688 15.531 15.531 15.531zm0-29.062c7.4609 0 13.531 6.0703 13.531 13.531 0 7.4609-6.0703 13.531-13.531 13.531s-13.531-6.0703-13.531-13.531c0-7.4609 6.0703-13.531 13.531-13.531z" fill="white"/>
  <path d="m40.172 84.57c2.1406 3.3984 5.8086 5.4297 9.8281 5.4297s7.6914-2.0312 9.8281-5.4297c9.2383-14.691 20.262-34.328 20.262-44.488 0-16.59-13.5-30.09-30.09-30.09s-30.09 13.5-30.09 30.09c0 10.16 11.02 29.801 20.262 44.488zm9.8281-72.57c15.488 0 28.09 12.602 28.09 28.09 0 7.5508-7.0898 22.969-19.949 43.422-1.7695 2.8086-4.8086 4.4883-8.1289 4.4883-3.3203 0-6.3711-1.6797-8.1406-4.4883-12.871-20.449-19.949-35.871-19.949-43.422 0-15.488 12.602-28.09 28.09-28.09z" fill="white"/>
 </g>
</svg>
