<svg xmlns="http://www.w3.org/2000/svg" version="1.1" viewBox="-5.0 -10.0 110.0 135.0">
 <path d="m62.398 52.801c7.8008-4.3008 13.102-12.699 13.102-22.199-0.10156-14-11.5-25.402-25.5-25.402s-25.398 11.402-25.398 25.402c0 9.5 5.3008 17.898 13.102 22.199-18.203 5.3984-31.402 22.199-31.402 42h5c0-21.402 17.301-38.801 38.699-38.801s38.801 17.398 38.801 38.801h5c0-19.801-13.301-36.602-31.402-42zm-32.797-22.199c0-11.301 9.1992-20.398 20.398-20.398s20.398 9.1992 20.398 20.398c0 11.199-9.0977 20.398-20.398 20.398s-20.398-9.1016-20.398-20.398z" fill="white"/>
</svg>