<svg xmlns="http://www.w3.org/2000/svg" version="1.1" viewBox="-5.0 -10.0 110.0 135.0">
 <g>
  <path d="m79.762 47.254h-15.145l-10.949 24.609h9.457l-8.6953 21.344c-0.125 0.30469 0.33594 0.51953 0.54687 0.25781l22.348-27.539h-11.141z"/>
  <path d="m84.707 38.469c0.16406-0.83984 0.25-1.6914 0.25-2.5469 0-7.3008-5.9375-13.238-13.238-13.238-0.85156 0-1.6992 0.082031-2.5352 0.24609-3.8672-8.4414-12.227-13.84-21.582-13.84-9.2656 0-17.637 5.3633-21.531 13.723-9.9609 1.2031-17.66 9.8203-17.66 19.93 0 10.871 8.5078 19.684 19.34 20.059 0.24219 0.011719 0.48438 0.023438 0.73047 0.023438h25.633v-2.4453l-25.629 0.003906c-0.19922 0-0.39453-0.007812-0.62109-0.019531-9.5391-0.33203-17.012-8.0703-17.012-17.621 0-9.0938 7.0938-16.809 16.145-17.57l0.73047-0.0625 0.28906-0.67578c3.3672-7.8398 11.051-12.906 19.582-12.906 8.707 0 16.453 5.2148 19.734 13.281l0.41016 1.0117 1.0508-0.29297c0.95312-0.26562 1.9336-0.40234 2.918-0.40234 5.9531 0 10.793 4.8438 10.793 10.793 0 1.0039-0.14062 2-0.41797 2.9688l-0.32422 1.1289 1.1133 0.36719c4.207 1.3906 7.0352 5.3047 7.0352 9.7383 0 5.6562-4.6016 10.258-10.258 10.258l-5.9922 0.003906v2.4453h6c7.0039 0 12.699-5.6992 12.699-12.699 0.003906-5.1133-3.0312-9.6641-7.6523-11.66z"/>
  <path d="m26.902 66.688c-0.61328-0.27344-1.3359 0-1.6133 0.61719l-4.7188 10.531c-0.27734 0.61719 0 1.3398 0.61719 1.6133 0.16406 0.074219 0.33203 0.10547 0.5 0.10547 0.46484 0 0.91406-0.26953 1.1172-0.72266l4.7188-10.531c0.27344-0.61328-0.003907-1.3359-0.62109-1.6133z"/>
  <path d="m43.875 66.688c-0.61328-0.27344-1.3398 0-1.6133 0.61719l-4.7188 10.531c-0.27734 0.61719 0 1.3398 0.61719 1.6133 0.16406 0.074219 0.33203 0.10547 0.5 0.10547 0.46484 0 0.91406-0.26953 1.1172-0.72266l4.7188-10.531c0.26953-0.61328-0.003906-1.3359-0.62109-1.6133z"/>
  <path d="m34.906 66.688c-0.61328-0.27344-1.3359 0-1.6133 0.61719l-7.3516 16.414c-0.27734 0.61719 0 1.3398 0.61719 1.6133 0.16406 0.074219 0.33203 0.10547 0.5 0.10547 0.46484 0 0.91406-0.26953 1.1172-0.72266l7.3516-16.414c0.26953-0.61328-0.003906-1.3359-0.62109-1.6133z"/>
  <path d="m51.875 66.688c-0.61328-0.27344-1.3398 0-1.6133 0.61719l-7.3516 16.414c-0.27734 0.61719 0 1.3398 0.61719 1.6133 0.16406 0.074219 0.33203 0.10547 0.5 0.10547 0.46484 0 0.91406-0.26953 1.1172-0.72266l7.3516-16.414c0.27344-0.61328-0.003906-1.3359-0.62109-1.6133z"/>
 </g>
</svg>